<mxfile host="app.diagrams.net" modified="2023-08-22T03:17:09.494Z" agent="Mozilla/5.0 (Windows NT 10.0; Win64; x64) AppleWebKit/537.36 (KHTML, like Gecko) Chrome/116.0.0.0 Safari/537.36" version="21.3.8" etag="Jj2x9gwYSJAhXy0rmV3h" type="github">
  <diagram name="Halaman-1" id="PZZm0UKW0z9E_4hf90Bp">
    <mxGraphModel>
      <root>
        <mxCell id="0" />
        <mxCell id="1" parent="0" />
      </root>
    </mxGraphModel>
  </diagram>
</mxfile>
